<svg width="195" height="44" viewBox="0 0 195 44" fill="none" xmlns="http://www.w3.org/2000/svg">
<path d="M29.3047 2.22444C27.4424 3.04613 23.8272 6.27811 24.2654 6.71634C24.4297 6.88068 27.278 6.552 30.6193 6.00421C35.6586 5.18252 36.6994 4.85385 36.6994 4.08694C36.6994 2.99135 34.0702 1.45753 32.2078 1.45753C31.4957 1.51231 30.2359 1.84099 29.3047 2.22444Z" fill="#E10B17"/>
<path d="M28.1544 7.42868C23.8272 8.57905 17.8019 11.4276 13.9676 14.057C7.23029 18.7132 2.35529 26.0536 2.84827 30.7646C3.39602 35.4756 7.94237 39.1458 14.2963 40.0771C16.5969 40.4058 16.9255 40.2962 18.021 38.9815C19.4452 37.119 19.5 36.0234 18.2401 35.64C17.6924 35.4209 15.9396 34.654 14.2963 33.9418C11.8862 32.7915 11.1741 32.1341 10.3525 30.1621C9.4213 28.19 9.36653 27.4231 9.8595 25.1771C10.6811 21.7261 12.0505 19.6444 15.7205 16.2481C20.9789 11.4276 26.7303 9.34595 33.5224 9.78419C36.316 9.94853 37.6306 10.332 39.3286 11.5371L41.5196 13.0162L44.9705 12.0301C46.8328 11.4823 48.4761 10.7154 48.5856 10.3868C48.75 10.0033 47.4901 9.07206 45.9016 8.25037C41.9578 6.22354 34.0702 5.84008 28.1544 7.42868Z" fill="#0C1220"/>
<path d="M24.868 11.7563C22.0197 12.7423 17.0351 15.7004 15.8848 17.1246C14.8989 18.275 15.5014 18.0559 18.4593 16.3029C21.8553 14.2213 25.3062 13.8379 25.9635 15.4813C26.3469 16.4673 24.5941 24.465 23.0056 29.1213C22.4031 30.929 20.9789 34.3253 19.8834 36.626C18.1854 40.2962 18.0211 41.0084 18.6784 41.7753C20.486 43.9664 30.0716 41.337 34.7823 37.2834L36.4256 35.9139L34.2346 36.8451C29.3596 38.872 27.552 39.4198 26.566 39.0911C25.6896 38.7076 25.6348 38.2694 25.9087 35.2565C26.6756 27.5327 30.6742 16.3029 33.7416 13.2353C34.7275 12.2493 35.3848 11.2632 35.2205 11.0989C34.5084 10.3868 27.552 10.8798 24.868 11.7563Z" fill="#E10B17"/>
<path d="M58.3356 13.5639C57.7878 14.9882 58.2808 30.4907 58.8833 30.4907C59.6502 30.4907 59.924 14.057 59.212 13.3448C58.8285 12.9614 58.5547 13.0709 58.3356 13.5639Z" fill="#0C1220"/>
<path d="M75.3159 13.6187C75.1516 14.0022 74.9873 17.1794 74.9325 20.6305L74.7682 26.9301L69.4002 20.1922C66.4423 16.522 63.6488 13.5092 63.2106 13.5092C62.6081 13.5092 62.4437 14.9882 62.4437 21.9999C62.4437 29.1212 62.5533 30.4907 63.2654 30.4907C63.9227 30.4907 64.087 29.2308 64.1965 23.7529L64.3609 17.0698L69.7836 23.7529C72.7415 27.4779 75.4803 30.4907 75.9185 30.4907C76.521 30.4907 76.6853 28.9021 76.6853 22.0547C76.6853 16.9603 76.4662 13.4544 76.1376 13.2353C75.8089 13.0709 75.4803 13.2353 75.3159 13.6187Z" fill="#0C1220"/>
<path d="M79.4242 14.057C79.0955 14.6596 78.8764 17.1794 78.9312 19.5897C78.986 22.8217 78.8216 24.1364 78.2739 24.4651C77.6714 24.8485 77.7261 25.1772 78.5478 26.0537C79.0955 26.6562 79.4242 27.6423 79.3146 28.1901C78.6573 30.5456 79.698 31.0386 85.066 31.0386C90.1601 31.0386 91.9129 30.5456 91.2556 29.45C90.9817 29.0665 88.9551 28.8474 85.9424 28.8474C81.1222 28.8474 81.0674 28.8474 81.0674 27.4779C81.0674 26.1084 81.1222 26.1084 85.9424 26.1084C88.9551 26.1084 90.9817 25.8893 91.2556 25.5059C91.9129 24.4103 90.2149 23.9173 85.6138 23.9173H81.0674V19.5349V15.1526H85.6138C90.2149 15.1526 91.9129 14.6596 91.2556 13.564C90.9817 13.1805 88.8455 12.9614 85.4494 12.9614C80.5744 12.9614 79.9719 13.071 79.4242 14.057Z" fill="#0C1220"/>
<path d="M117.493 13.8381C111.577 16.9057 110.317 23.2053 114.535 28.0259C118.369 32.4082 125.874 31.5865 128.503 26.5468C129.708 24.2461 128.941 23.8627 123.244 24.027C119.52 24.1366 118.588 24.3557 118.588 25.013C118.588 25.6704 119.52 25.8895 122.697 26.1086L126.805 26.3825L125.216 27.6424C121.93 30.1623 116.781 28.9024 114.754 25.013C111.522 18.7682 118.753 12.3042 124.778 16.084C125.983 16.8509 127.079 16.6318 127.079 15.7006C127.079 14.8241 122.861 12.9616 120.944 12.9616C119.958 12.9616 118.424 13.3451 117.493 13.8381Z" fill="#0C1220"/>
<path d="M130.42 13.7283C129.982 14.2213 129.817 17.015 129.927 22.3286C130.091 29.3404 130.201 30.2168 131.077 30.3812C131.899 30.5455 132.008 29.8882 132.008 22.8764V15.1525H135.459C139.567 15.1525 140.772 16.029 140.772 19.0966C140.772 21.5069 139.896 22.2738 136.609 22.7121C135.185 22.9312 133.926 23.3694 133.816 23.7529C133.542 24.5198 142.251 30.4907 143.621 30.4907C145.319 30.4907 144.716 29.5595 141.923 27.7518C138.581 25.6154 137.486 24.465 138.855 24.465C139.348 24.465 140.499 23.7529 141.375 22.8764C144.607 19.6444 142.909 14.55 138.308 13.5092C135.021 12.7423 131.132 12.8518 130.42 13.7283Z" fill="#0C1220"/>
<path d="M148.989 14.1664C145.867 15.8098 144.497 17.727 144.169 21.0686C143.237 30.8193 156.274 34.8181 160.875 26.1082C162.463 23.1502 162.463 20.959 160.93 17.8914C159.506 15.1524 156.055 12.9612 153.097 12.9612C152.166 12.9612 150.303 13.509 148.989 14.1664ZM156.986 16.0289C161.094 18.7678 160.875 25.8344 156.548 28.0803C154.247 29.2854 149.92 28.8472 148.222 27.2586C145.976 25.1222 145.428 20.5755 147.072 17.8914C148.605 15.4263 154.357 14.3307 156.986 16.0289Z" fill="#0C1220"/>
<path d="M163.285 14.0022C162.518 15.3717 162.518 22.986 163.23 25.6154C163.504 26.6562 164.545 28.2448 165.476 29.1761C166.9 30.5455 167.558 30.7646 170.296 30.7646C176.376 30.7099 178.184 27.9161 177.91 18.8776C177.801 14.7691 177.581 13.7831 176.924 13.7831C176.267 13.7831 176.048 14.8787 175.938 19.6992C175.774 26.4371 175.171 27.8613 172.213 28.8474C170.844 29.3404 169.858 29.3404 168.434 28.8474C165.531 27.9161 164.874 26.1084 164.874 19.3158C164.874 13.6188 164.381 11.9206 163.285 14.0022Z" fill="#0C1220"/>
<path d="M180.32 13.6735C179.827 14.276 179.663 16.6863 179.772 22.3286C179.937 28.9021 180.046 30.2168 180.758 30.2168C181.306 30.2168 181.635 29.5594 181.744 28.1352L181.909 26.1084H185.25C190.618 26.1084 192.809 24.1363 192.809 19.3705C192.754 15.3716 190.782 13.783 184.812 13.2352C181.744 12.9066 180.868 13.0161 180.32 13.6735ZM188.975 15.9742C190.837 16.9054 191.549 19.4801 190.673 21.8356C189.906 23.8076 188.536 24.465 184.921 24.465H181.854V19.8087V15.1525H184.593C186.126 15.1525 188.098 15.536 188.975 15.9742Z" fill="#0C1220"/>
<path d="M92.5702 14.112C92.5702 14.3859 93.83 16.1936 95.309 18.0561C96.8427 19.9186 98.0477 21.6715 98.0477 22.0002C98.0477 22.3289 96.7879 24.1366 95.2542 25.9991C93.337 28.3546 92.5702 29.7241 92.8441 30.3814C93.1179 31.1483 93.4466 31.0388 94.9255 29.3954C95.9115 28.3546 97.3904 26.6017 98.212 25.5609L99.7457 23.6436L100.951 25.0131C101.608 25.78 103.087 27.5329 104.183 28.8476C105.716 30.7101 106.374 31.1483 106.867 30.6553C107.305 30.2171 106.757 29.1215 104.402 26.2182C102.704 24.1366 101.334 22.2193 101.334 21.9454C101.334 21.6715 102.594 19.9734 104.073 18.1657C105.607 16.3579 106.812 14.605 106.812 14.2216C106.812 12.6877 105.333 13.6738 102.813 16.7962C101.389 18.6039 100.02 20.0829 99.8005 20.0829C99.5814 20.0829 98.212 18.6039 96.7331 16.7962C94.2134 13.7833 92.5702 12.6877 92.5702 14.112Z" fill="#0C1220"/>
<path d="M44.2583 21.6713C37.8496 23.9172 37.3019 24.1911 38.1783 25.0676C38.5617 25.451 39.1642 25.3963 40.205 24.958C42.3412 23.972 42.5603 24.7389 40.7527 27.3135C38.6712 30.2716 33.9606 33.5036 29.8524 34.8183C27.3328 35.5852 26.5111 36.0782 26.4016 37.0095C26.1277 38.7076 27.8257 38.4885 32.5912 36.2973C40.0406 32.8462 46.1207 27.9709 49.3524 22.9312C50.9409 20.3566 51.2696 19.5349 50.5575 19.5897C50.2836 19.5897 47.4901 20.5209 44.2583 21.6713Z" fill="#0C1220"/>
</svg>
