              <svg width="191" height="42" viewBox="0 0 191 42" fill="none" xmlns="http://www.w3.org/2000/svg">
                <path
                  d="M27.3048 1.31429C25.4425 2.13598 21.8273 5.36795 22.2655 5.80618C22.4298 5.97052 25.2781 5.64185 28.6194 5.09405C33.6588 4.27237 34.6995 3.94369 34.6995 3.17678C34.6995 2.0812 32.0703 0.547378 30.2079 0.547378C29.4958 0.602158 28.236 0.930833 27.3048 1.31429Z"
                  fill="white" />
                <path
                  d="M26.1544 6.51852C21.8272 7.66889 15.8019 10.5174 11.9676 13.1468C5.23029 17.803 0.35529 25.1435 0.848267 29.8545C1.39602 34.5655 5.94237 38.2357 12.2963 39.1669C14.5969 39.4956 14.9255 39.3861 16.021 38.0714C17.4452 36.2089 17.5 35.1133 16.2401 34.7298C15.6924 34.5107 13.9396 33.7438 12.2963 33.0317C9.88619 31.8813 9.17411 31.224 8.35248 29.2519C7.4213 27.2799 7.36653 26.5129 7.8595 24.267C8.68113 20.8159 10.0505 18.7343 13.7205 15.338C18.9789 10.5174 24.7303 8.4358 31.5224 8.87403C34.316 9.03837 35.6306 9.42182 37.3286 10.627L39.5196 12.106L42.9705 11.12C44.8328 10.5722 46.4761 9.80528 46.5856 9.4766C46.75 9.09315 45.4901 8.1619 43.9016 7.34021C39.9578 5.31339 32.0702 4.92993 26.1544 6.51852Z"
                  fill="white" />
                <path
                  d="M22.8677 10.8461C20.0194 11.8321 15.0349 14.7902 13.8846 16.2145C12.8986 17.3648 13.5012 17.1457 16.459 15.3928C19.8551 13.3112 23.3059 12.9277 23.9632 14.5711C24.3467 15.5571 22.5939 23.5549 21.0054 28.2111C20.4029 30.0188 18.9787 33.4151 17.8832 35.7159C16.1852 39.3861 16.0208 40.0982 16.6781 40.8651C18.4857 43.0563 28.0714 40.4269 32.7821 36.3732L34.4253 35.0037L32.2343 35.935C27.3593 37.9618 25.5517 38.5096 24.5658 38.1809C23.6894 37.7975 23.6346 37.3592 23.9085 34.3464C24.6753 26.6225 28.6739 15.3928 31.7413 12.3251C32.7273 11.3391 33.3846 10.3531 33.2203 10.1888C32.5082 9.47662 25.5517 9.96964 22.8677 10.8461Z"
                  fill="white" />
                <path
                  d="M56.3358 12.6538C55.7881 14.078 56.281 29.5806 56.8836 29.5806C57.6504 29.5806 57.9243 13.1468 57.2122 12.4347C56.8288 12.0512 56.5549 12.1608 56.3358 12.6538Z"
                  fill="white" />
                <path
                  d="M73.316 12.7086C73.1517 13.092 72.9874 16.2692 72.9326 19.7203L72.7683 26.0199L67.4003 19.2821C64.4424 15.6119 61.6489 12.599 61.2107 12.599C60.6082 12.599 60.4438 14.078 60.4438 21.0898C60.4438 28.2111 60.5534 29.5806 61.2655 29.5806C61.9228 29.5806 62.0871 28.3206 62.1967 22.8427L62.361 16.1597L67.7837 22.8427C70.7416 26.5677 73.4804 29.5806 73.9186 29.5806C74.5211 29.5806 74.6854 27.992 74.6854 21.1446C74.6854 16.0501 74.4663 12.5442 74.1377 12.3251C73.809 12.1608 73.4804 12.3251 73.316 12.7086Z"
                  fill="white" />
                <path
                  d="M77.4242 13.1469C77.0955 13.7494 76.8764 16.2693 76.9312 18.6796C76.986 21.9115 76.8216 23.2262 76.2739 23.5549C75.6714 23.9384 75.7261 24.267 76.5478 25.1435C77.0955 25.7461 77.4242 26.7321 77.3146 27.2799C76.6573 29.6354 77.698 30.1284 83.066 30.1284C88.1601 30.1284 89.9129 29.6354 89.2556 28.5398C88.9817 28.1564 86.9551 27.9372 83.9424 27.9372C79.1222 27.9372 79.0674 27.9372 79.0674 26.5678C79.0674 25.1983 79.1222 25.1983 83.9424 25.1983C86.9551 25.1983 88.9817 24.9792 89.2556 24.5957C89.9129 23.5001 88.2149 23.0071 83.6138 23.0071H79.0674V18.6248V14.2424H83.6138C88.2149 14.2424 89.9129 13.7494 89.2556 12.6538C88.9817 12.2704 86.8455 12.0513 83.4494 12.0513C78.5744 12.0513 77.9719 12.1608 77.4242 13.1469Z"
                  fill="white" />
                <path
                  d="M115.493 12.9279C109.577 15.9955 108.317 22.2952 112.535 27.1157C116.369 31.4981 123.874 30.6764 126.503 25.6367C127.708 23.336 126.941 22.9525 121.244 23.1168C117.52 23.2264 116.588 23.4455 116.588 24.1029C116.588 24.7602 117.52 24.9793 120.697 25.1985L124.805 25.4724L123.216 26.7323C119.93 29.2521 114.781 27.9922 112.754 24.1029C109.522 17.858 116.753 11.3941 122.778 15.1739C123.983 15.9408 125.079 15.7216 125.079 14.7904C125.079 13.9139 120.861 12.0514 118.944 12.0514C117.958 12.0514 116.424 12.4349 115.493 12.9279Z"
                  fill="white" />
                <path
                  d="M128.42 12.8181C127.982 13.3111 127.817 16.1049 127.927 21.4185C128.091 28.4302 128.201 29.3067 129.077 29.471C129.899 29.6353 130.008 28.978 130.008 21.9663V14.2424H133.459C137.567 14.2424 138.772 15.1189 138.772 18.1865C138.772 20.5968 137.896 21.3637 134.609 21.8019C133.185 22.021 131.926 22.4593 131.816 22.8427C131.542 23.6096 140.251 29.5806 141.621 29.5806C143.319 29.5806 142.716 28.6493 139.923 26.8416C136.581 24.7052 135.486 23.5549 136.855 23.5549C137.348 23.5549 138.499 22.8427 139.375 21.9663C142.607 18.7343 140.909 13.6398 136.308 12.599C133.021 11.8321 129.132 11.9417 128.42 12.8181Z"
                  fill="white" />
                <path
                  d="M146.989 13.2562C143.867 14.8996 142.497 16.8169 142.169 20.1584C141.237 29.9091 154.274 33.908 158.875 25.1981C160.463 22.24 160.463 20.0488 158.93 16.9812C157.506 14.2422 154.055 12.0511 151.097 12.0511C150.166 12.0511 148.303 12.5989 146.989 13.2562ZM154.986 15.1187C159.094 17.8577 158.875 24.9242 154.548 27.1701C152.247 28.3753 147.92 27.9371 146.222 26.3485C143.976 24.2121 143.428 19.6654 145.072 16.9812C146.605 14.5161 152.357 13.4206 154.986 15.1187Z"
                  fill="white" />
                <path
                  d="M161.285 13.0921C160.518 14.4615 160.518 22.0758 161.231 24.7052C161.504 25.7461 162.545 27.3346 163.476 28.2659C164.9 29.6354 165.558 29.8545 168.297 29.8545C174.377 29.7997 176.184 27.006 175.91 17.9674C175.801 13.859 175.582 12.8729 174.924 12.8729C174.267 12.8729 174.048 13.9685 173.938 18.7891C173.774 25.5269 173.172 26.9512 170.214 27.9372C168.844 28.4302 167.858 28.4302 166.434 27.9372C163.531 27.006 162.874 25.1983 162.874 18.4056C162.874 12.7086 162.381 11.0104 161.285 13.0921Z"
                  fill="white" />
                <path
                  d="M178.32 12.7633C177.827 13.3659 177.663 15.7762 177.773 21.4184C177.937 27.9919 178.047 29.3066 178.759 29.3066C179.306 29.3066 179.635 28.6493 179.745 27.225L179.909 25.1982H183.25C188.618 25.1982 190.809 23.2261 190.809 18.4604C190.754 14.4615 188.783 12.8729 182.812 12.3251C179.745 11.9964 178.868 12.106 178.32 12.7633ZM186.975 15.064C188.837 15.9953 189.549 18.5699 188.673 20.9254C187.906 22.8975 186.537 23.5548 182.922 23.5548H179.854V18.8986V14.2424H182.593C184.127 14.2424 186.099 14.6258 186.975 15.064Z"
                  fill="white" />
                <path
                  d="M90.5703 13.2018C90.5703 13.4757 91.8301 15.2834 93.3091 17.1459C94.8428 19.0084 96.0478 20.7614 96.0478 21.09C96.0478 21.4187 94.788 23.2264 93.2543 25.0889C91.3372 27.4444 90.5703 28.8139 90.8442 29.4713C91.1181 30.2382 91.4467 30.1286 92.9256 28.4852C93.9116 27.4444 95.3905 25.6915 96.2122 24.6507L97.7459 22.7334L98.9509 24.1029C99.6082 24.8698 101.087 26.6227 102.183 27.9374C103.716 29.7999 104.374 30.2382 104.867 29.7452C105.305 29.3069 104.757 28.2113 102.402 25.308C100.704 23.2264 99.3344 21.3092 99.3344 21.0353C99.3344 20.7614 100.594 19.0632 102.073 17.2555C103.607 15.4478 104.812 13.6948 104.812 13.3114C104.812 11.7776 103.333 12.7636 100.813 15.886C99.3891 17.6937 98.0197 19.1728 97.8006 19.1728C97.5815 19.1728 96.2122 17.6937 94.7332 15.886C92.2136 12.8732 90.5703 11.7776 90.5703 13.2018Z"
                  fill="white" />
                <path
                  d="M42.2584 20.7611C35.8497 23.0071 35.302 23.281 36.1784 24.1574C36.5618 24.5409 37.1643 24.4861 38.2051 24.0479C40.3413 23.0619 40.5604 23.8288 38.7528 26.4034C36.6714 29.3615 31.9607 32.5934 27.8525 33.9081C25.3329 34.675 24.5113 35.1681 24.4017 36.0993C24.1278 37.7975 25.8259 37.5783 30.5913 35.3872C38.0408 31.9361 44.1208 27.0607 47.3525 22.021C48.941 19.4464 49.2697 18.6247 48.5576 18.6795C48.2837 18.6795 45.4902 19.6108 42.2584 20.7611Z"
                  fill="white" />
              </svg>